<?xml version="1.0" encoding="utf-8"?>
<!DOCTYPE svg PUBLIC "-//W3C//DTD SVG 20010904//EN" "http://www.w3.org/TR/2001/REC-SVG-20010904/DTD/svg10.dtd">
<svg version="1.0" xmlns="http://www.w3.org/2000/svg" width="256px" height="256px" viewBox="0 0 256 256" preserveAspectRatio="xMidYMid meet">
 <g fill="#35220b">
  <path d="M83.3 161.9 c-0.7 -0.7 -1.3 -3.2 -1.3 -5.5 0 -3.6 0.5 -4.7 4.1 -7.9 7.1 -6.4 15.6 -9.7 26.4 -10.3 14.4 -0.7 25 2.6 33.4 10.6 3.3 3.1 4.1 4.6 4.1 7.5 0 7.3 -4.5 8.4 -15.8 3.7 -12.7 -5.4 -23.6 -5.5 -35.7 -0.3 -7.2 3.1 -13.5 4 -15.2 2.2z"/>
  <path d="M139.4 135.1 c-4.2 -2.6 -5.9 -7.2 -5.9 -16.1 0 -12.3 5.1 -18 16.1 -18 10 0 15.4 6.4 15.4 18.3 0 7.9 -1.6 12.5 -5.5 15.5 -3.7 3 -15.5 3.1 -20.1 0.3z"/>
  <path d="M85.3 121.4 c-4.7 -2.3 -7.3 -8.4 -7.3 -16.7 0 -12.8 4.4 -17.7 15.8 -17.7 10.6 0 15.1 4.3 15.9 15.4 0.7 7.8 -0.9 13.4 -4.7 17.1 -2.7 2.6 -3.9 3 -9.8 3.3 -4.7 0.2 -7.6 -0.2 -9.9 -1.4z"/>
 </g>
 <g fill="#2f2f2f">
  <path d="M121.7 138.3 c-0.4 -0.3 -0.7 -3.4 -0.7 -6.8 0 -4.7 0.4 -6.6 1.8 -7.8 2.2 -2 8.3 -2.2 10 -0.5 1.4 1.4 1.6 9.7 0.2 13.2 -0.8 2.3 -1.5 2.6 -5.8 2.6 -2.7 0 -5.2 -0.3 -5.5 -0.7z"/>
  <path d="M107 135.1 c-1.5 -3 -1.2 -10.4 0.6 -12.9 1.3 -1.9 2.3 -2.3 6.2 -2 l4.7 0.3 0.3 6.6 c0.3 8 -1 9.9 -6.8 9.9 -2.9 0 -4.2 -0.5 -5 -1.9z"/>
 </g>
 <g fill="#5e4331">
  <path d="M74 235.3 c0.1 -2.5 0.9 -3.2 6.9 -6 6.9 -3.3 9.1 -5.9 9.1 -10.8 0 -2.1 0.5 -2.5 3.1 -2.5 3.5 0 5.8 2.3 5.9 5.7 0 1.6 -0.4 2.1 -1.5 1.7 -1.1 -0.5 -1.5 0.1 -1.5 1.9 0 4.3 -8.1 9.4 -19.2 12.1 -2.6 0.6 -2.8 0.4 -2.8 -2.1z"/>
  <path d="M77 193.7 c0 -4.3 4.6 -10.9 8.8 -12.6 1.6 -0.7 4.3 -1.1 5.8 -0.9 2.6 0.3 2.9 0.7 3.2 4.6 0.2 3.3 0 4.2 -1.2 4.2 -0.9 0 -1.6 0.4 -1.6 0.9 0 2 -8.4 7.1 -11.7 7.1 -3.1 0 -3.3 -0.2 -3.3 -3.3z"/>
  <path d="M129.2 101.4 c-1.7 -1.2 -2.2 -2.5 -2.2 -6.3 0 -2.6 0.5 -5.2 1.2 -5.9 0.7 -0.7 3.5 -1.2 6.3 -1.2 6.5 0 15.9 -2.4 21.2 -5.6 8.1 -4.7 15.3 -2.2 15.3 5.2 0 4.9 -5.5 10.3 -13.3 13.2 -7.4 2.8 -24.9 3.2 -28.5 0.6z"/>
  <path d="M105.6 83.9 c-4.3 -3.2 -14.9 -6.9 -20 -6.9 -4.4 0 -5.6 -1.6 -5.6 -7.7 0 -7 1.4 -7.7 13.9 -7.1 11.1 0.6 18.2 3.3 24.5 9.4 3.5 3.4 3.7 3.9 3.4 9.2 l-0.3 5.7 -6 0.2 c-5.3 0.2 -6.5 -0.1 -9.9 -2.8z"/>
 </g>
 <g fill="#855d40">
  <path d="M48 239.1 c-9.1 -2.8 -17.6 -10.6 -20.5 -18.9 -0.9 -2.6 -1.9 -8.4 -2.2 -12.9 l-0.6 -8.3 2.6 0 c1.7 0 2.8 0.7 3.2 2.1 0.4 1.1 4 5.4 8.1 9.4 8.3 8.3 19.1 14.3 30.6 17.1 6.2 1.5 6.9 1.5 11.2 -0.1 5.7 -2.2 6.7 -3.5 2.7 -3.5 -2.8 0 -3.1 -0.3 -3.1 -2.9 0 -3.9 0.9 -6.1 2.6 -6.1 0.8 0 1.4 -0.4 1.4 -1 0 -0.5 0.5 -1 1 -1 0.6 0 1.9 -0.8 3 -1.7 1.8 -1.7 1.7 -1.8 -3.1 -1.5 l-4.9 0.4 0 -3.5 c0 -2.9 0.6 -3.8 3.5 -5.6 1.9 -1.1 4 -3.2 4.7 -4.6 0.9 -1.9 1.9 -2.5 4.5 -2.5 2.6 0 3.3 0.4 3.3 2 0 1.1 0.9 3.4 2 5.2 1.1 1.8 2 4.7 2 6.5 0 3 0.3 3.3 5.3 4.8 9 2.8 21.7 3.8 30.4 2.6 18.5 -2.6 20.8 -3.1 21.9 -4.6 0.6 -0.8 2.3 -1.5 3.7 -1.5 1.5 0 4 -1.3 5.9 -3 1.8 -1.7 4.3 -3.3 5.6 -3.6 1.2 -0.4 2.2 -1 2.2 -1.4 0 -0.4 1.4 -1 3.1 -1.4 1.9 -0.4 3.3 -1.3 3.6 -2.6 0.3 -1.1 1.1 -2 1.8 -2 0.7 0 1.5 -0.9 1.8 -1.9 0.2 -1.1 1.5 -2.1 2.8 -2.3 1.5 -0.2 2.5 -1.2 2.9 -2.8 0.3 -1.4 1.5 -2.6 2.8 -3 2.4 -0.5 6.2 -5.5 6.2 -8 0 -0.8 0.8 -2 1.9 -2.7 1 -0.6 2.1 -2.5 2.4 -4.1 0.3 -1.6 1.3 -3.7 2.2 -4.5 0.8 -0.9 1.5 -2.5 1.5 -3.5 0 -1.1 0.3 -2.2 0.8 -2.4 1.3 -0.6 5.1 -14.1 6.3 -22.3 0.6 -4.5 0.8 -11.5 0.5 -16 -0.7 -8.2 -4.5 -24.7 -5.8 -25.3 -0.5 -0.2 -0.8 -1.2 -0.8 -2.2 0 -1 -0.3 -2 -0.7 -2.2 -0.8 -0.3 -3.6 -5.9 -6.7 -13.1 -0.8 -2 -2.2 -3.7 -3.1 -3.7 -0.8 0 -1.5 -0.5 -1.5 -1.1 0 -0.6 -1.6 -2.5 -3.5 -4.2 -1.9 -1.7 -3.5 -3.7 -3.5 -4.4 0 -0.7 -0.6 -1.3 -1.3 -1.3 -0.6 0 -2.7 -1.6 -4.4 -3.5 -1.8 -1.9 -3.7 -3.5 -4.3 -3.5 -0.5 0 -1 -0.4 -1 -1 0 -0.5 -0.7 -1 -1.5 -1 -0.8 0 -1.5 -0.6 -1.5 -1.4 0 -0.7 -1.3 -1.6 -2.9 -1.9 -1.6 -0.3 -3.5 -1.2 -4.3 -2 -0.7 -0.8 -3 -2 -5.1 -2.6 -2 -0.7 -3.7 -1.7 -3.7 -2.2 0 -0.5 -0.8 -0.9 -1.7 -0.9 -1 0 -4.7 -0.9 -8.1 -2 -9 -2.8 -21.2 -4 -30.7 -2.9 -15.1 1.6 -21 2.8 -22.1 4.4 -0.6 0.8 -2.1 1.5 -3.3 1.5 -2.8 0 -5.9 1.6 -9 4.6 -1.3 1.3 -3 2.4 -3.7 2.4 -0.8 0 -1.4 0.5 -1.4 1 0 0.6 -0.7 1 -1.5 1 -0.8 0 -1.5 0.4 -1.5 0.9 0 0.5 -1.2 1.1 -2.8 1.4 -3.5 0.7 -18.2 15.7 -18.2 18.6 0 1.1 -0.4 2.1 -1 2.1 -0.5 0 -1 0.7 -1 1.5 0 0.8 -0.6 1.5 -1.4 1.5 -1.5 0 -2.6 2.1 -2.6 5 0 1 -1.1 2.8 -2.5 4.1 -1.3 1.3 -2.5 3.3 -2.5 4.4 0 1.1 -1.2 5.6 -2.7 10 -3.4 10.5 -4.3 29.4 -1.9 39.8 0.9 3.8 1.6 8.4 1.6 10.3 0 3.4 0 3.4 -4.5 3.4 -2.5 0 -6.5 -0.5 -8.9 -1.2 l-4.4 -1.2 -0.8 -9.4 c-0.3 -5.2 -0.4 -12.3 -0.1 -15.8 0.5 -4.9 0.3 -6.3 -0.8 -6.8 -1.1 -0.4 -1.5 -2.4 -1.5 -8 l0 -7.5 4.8 -0.7 4.9 -0.6 2.2 -7.2 c6.9 -21.4 21.7 -42 38.4 -53.5 7.2 -4.9 18.4 -9.8 29.4 -12.9 9 -2.4 11.3 -2.7 27.3 -2.7 16 0 18.3 0.3 27.3 2.7 18.8 5.3 31.9 12.9 43.7 25.5 10.7 11.3 19.2 25.7 24 41 l2.3 7.1 5.2 0.7 5.3 0.6 0.6 6.8 c0.8 7.5 0.2 10.1 -2.3 10.1 -1.4 0 -1.6 1.8 -1.7 15 -0.2 14.1 -0.1 15 1.7 15 1.7 0 1.9 0.8 1.9 6.9 0 7.6 -0.5 8.1 -7.8 8.1 -2.9 0 -3.5 0.5 -4.8 3.8 -4.7 11.6 -8.2 17 -16.4 25.2 -18.8 18.8 -44.9 28.2 -78.5 28.4 -17.5 0.1 -30 -1.8 -33.2 -5 l-2.3 -2.3 0 2.4 c0 4.8 -2.2 7.4 -8.9 10.7 -3.6 1.8 -7 3.8 -7.6 4.5 -2.1 2.5 -22.4 4.2 -28.5 2.4z"/>
  <path d="M85 190.9 c1.9 -1.7 3.4 -3.4 3.3 -4 -0.2 -0.5 0.6 -0.9 1.7 -0.9 1.1 0 2 -0.4 2 -0.8 0 -1.9 -1.4 -2 -4.3 -0.6 l-3 1.6 0.7 -2.8 c0.9 -3.3 1.3 -3.7 8.3 -7 3.8 -1.8 6.5 -2.4 10 -2.2 l4.8 0.3 0.3 4 0.3 4.1 -5.8 2.4 c-3.2 1.3 -7 3.1 -8.5 4.2 -1.4 1 -3.3 1.8 -4.2 1.8 -0.9 0 -1.6 0.7 -1.6 1.5 0 1.1 -1.1 1.5 -3.7 1.5 l-3.8 -0.1 3.5 -3z"/>
  <path d="M42.6 181.4 c-0.9 -0.8 -1.6 -3.1 -1.6 -5 0 -3 0.3 -3.4 2.7 -3.4 1.5 0 4.7 0.8 7 1.8 3.8 1.5 4.3 2.1 4.3 5 l0 3.2 -5.4 0 c-3.6 0 -6 -0.5 -7 -1.6z"/>
 </g>
 <g fill="#8d6545">
  <path d="M67 230.9 c-12.5 -3.2 -23 -9 -31.4 -17.4 -4.1 -4 -7.8 -8.4 -8.2 -9.7 l-0.8 -2.3 -0.7 2.5 c-0.5 1.4 -0.5 -1.5 -0.1 -6.5 0.9 -11.9 0.5 -18 -1.4 -23.8 -1.3 -3.8 -2.3 -5.1 -5.5 -6.7 l-3.9 -2 0 -6.3 0 -6.3 5.3 -1.7 c6.4 -2 6.7 -2.1 6.7 -0.4 0 0.7 2 1.8 4.5 2.5 6.1 1.6 7.5 1.5 7.5 -0.5 0 -1.4 -0.2 -1.5 -0.9 -0.5 -1.1 1.8 -2.5 -5 -1.6 -8.1 0.5 -1.7 0.4 -1.9 -0.4 -0.7 -0.8 1.1 -1 -0.5 -0.7 -6 0.4 -5.4 0.3 -6.4 -0.3 -3.5 -0.6 3 -0.8 1.4 -0.8 -6.5 0 -8.2 0.2 -9.5 0.8 -6 0.6 3.6 0.7 3.1 0.4 -2.8 -0.3 -4.9 0 -7 0.7 -6.6 0.6 0.4 0.8 -0.1 0.3 -1.5 -0.8 -2.6 0.3 -8.3 1.5 -7.6 0.4 0.3 0.6 -0.3 0.3 -1.4 -1.3 -5 10.3 -26.3 20.2 -36.9 7.9 -8.5 18.2 -16.5 20.1 -15.8 0.8 0.3 1.6 0 2 -0.6 0.4 -0.7 0.3 -0.8 -0.4 -0.4 -0.7 0.4 -1.2 0.5 -1.2 0.2 0 -1 13.3 -7.3 20.3 -9.6 4.1 -1.3 7.8 -1.9 9.3 -1.6 1.7 0.5 2.3 0.3 1.9 -0.4 -0.4 -0.6 1.5 -0.8 5.7 -0.5 4.4 0.3 5.2 0.2 2.8 -0.4 -2.3 -0.5 0.5 -0.7 8.5 -0.7 8 0 10.8 0.2 8.5 0.7 -2.4 0.5 -1.4 0.6 3 0.3 4.9 -0.3 6.1 -0.2 5 0.6 -1.2 0.9 -1 1 0.8 0.5 2.7 -0.8 8.4 0.3 7.7 1.5 -0.3 0.4 0.3 0.6 1.3 0.3 2.5 -0.6 15.4 4.6 14.5 6 -0.3 0.6 -0.1 0.7 0.5 0.3 1.6 -1 5.4 1.2 4.6 2.6 -0.4 0.7 -0.3 0.8 0.4 0.4 1.4 -0.9 9.5 4.1 8.7 5.4 -0.3 0.5 0 0.7 0.8 0.5 0.7 -0.3 2.2 0.5 3.3 1.7 1.9 2.3 1.9 2.3 -0.1 0.8 -1.7 -1.2 -1.8 -1.2 -0.7 0 0.7 0.8 2 1.5 2.9 1.5 0.9 0 1.8 0.6 2.1 1.4 0.3 0.9 0 1.1 -0.9 0.6 -0.8 -0.5 -1.1 -0.4 -0.6 0.1 0.5 0.5 1.6 0.9 2.5 0.9 0.9 0 1.7 0.8 1.7 1.7 0 1 0.6 2.3 1.4 3 1 1 1.2 1 0.7 0.1 -0.9 -1.6 0.6 -1.7 2.2 -0.1 1.6 1.6 1.5 3.1 0 2.2 -0.8 -0.4 -1 -0.3 -0.5 0.2 0.5 0.5 1.4 0.9 2 0.9 0.7 0 1.1 0.8 1.1 1.8 -0.1 0.9 0.2 1.5 0.6 1.2 2.2 -1.4 15.6 24 14.7 27.6 -0.3 1.1 -0.2 1.7 0.3 1.4 1.1 -0.7 2.2 4.3 1.4 6.7 -0.4 1.4 -0.3 1.8 0.6 1.3 0.8 -0.5 1 0.5 0.6 4.1 -0.3 2.8 -0.2 3.8 0.2 2.5 0.4 -1.3 0.7 4 0.7 11.8 0 7.8 -0.3 13.2 -0.7 11.9 -0.4 -1.3 -0.5 0.2 -0.2 3.2 0.4 4 0.2 5.1 -0.5 4 -0.8 -1.1 -0.9 -0.6 -0.4 1.9 0.4 2.3 0.3 3.2 -0.5 2.8 -0.6 -0.5 -0.8 0.1 -0.4 1.5 0.3 1.3 0.1 1.9 -0.5 1.5 -0.7 -0.5 -0.9 0 -0.6 1.2 0.6 2.3 -4.6 14.3 -5.8 13.5 -0.5 -0.3 -0.6 0.3 -0.2 1.2 0.4 1.2 0.3 1.5 -0.5 1 -0.8 -0.5 -1 -0.1 -0.5 1 0.5 1.3 0.3 1.5 -0.7 0.9 -0.9 -0.5 -1.1 -0.4 -0.6 0.4 0.9 1.4 -2.8 6.3 -3.9 5.3 -0.5 -0.4 -0.5 -0.1 -0.1 0.5 1 1.8 -5.2 10.6 -7 9.9 -0.7 -0.3 -1.6 0 -2 0.6 -0.4 0.7 -0.3 0.8 0.4 0.4 2.1 -1.3 1.3 0.7 -1.5 3.6 -2.7 2.9 -5 3.8 -3.7 1.6 0.4 -0.8 0.3 -0.9 -0.2 -0.5 -0.5 0.5 -0.9 1.6 -0.9 2.5 0 1 -0.7 1.6 -1.7 1.6 -1 -0.1 -1.6 0.2 -1.3 0.6 0.7 1.2 -5.3 5.3 -6.5 4.5 -0.6 -0.4 -0.9 -0.1 -0.8 0.7 0.2 0.7 -0.5 1.2 -1.4 1.2 -1 -0.1 -1.5 0.2 -1.3 0.7 0.8 1.1 -3.3 3.1 -4.7 2.3 -0.6 -0.4 -0.8 -0.3 -0.5 0.3 1.3 2.1 -19.7 9.9 -24.1 8.9 -2.1 -0.5 -2.4 -0.4 -1.2 0.4 1.1 0.8 0.1 1 -4 0.6 -3 -0.3 -4.4 -0.2 -3.1 0.2 1.3 0.4 -3.6 0.7 -11 0.8 -7.9 0 -12.2 -0.3 -10.4 -0.8 1.9 -0.5 1.1 -0.5 -2.3 -0.2 -3.9 0.4 -5.2 0.2 -4.7 -0.7 0.5 -0.8 0.1 -0.9 -1.3 -0.5 -2.4 0.8 -7.4 -0.3 -6.7 -1.4 0.2 -0.4 -0.8 -0.5 -2.3 -0.3 -2.1 0.4 -2.4 0.2 -1.2 -0.6 1 -0.7 1.1 -1.1 0.3 -1.1 -0.8 0 -1.3 -1.3 -1.3 -3.2 0 -1.8 -0.9 -4.8 -2 -6.6 -1.1 -1.8 -2 -4.2 -2 -5.5 0 -1.9 -0.2 -1.8 -2 1 -1 1.8 -3.4 4 -5.2 4.9 -1.9 1 -2.7 1.9 -2 2.2 0.7 0.2 2.4 -0.4 3.8 -1.3 2 -1.3 2.8 -1.4 4 -0.4 1.9 1.6 1.8 7.8 -0.1 8.5 -0.8 0.4 -1.2 1 -0.9 1.5 0.3 0.5 -0.4 0.9 -1.6 0.9 -1.2 0 -1.8 0.5 -1.5 1 0.3 0.6 -0.3 1 -1.5 1 -1.2 0 -1.9 0.4 -1.6 0.9 0.4 0.5 0 1.2 -0.6 1.5 -0.7 0.3 0.6 0.4 3 0.2 4 -0.4 4.2 -0.3 4.2 2.3 0 3.5 -2.1 5.4 -8.8 8 -6.2 2.5 -5.6 2.5 -15.2 0z m12 -13.4 c0 -0.8 0.7 -1.5 1.5 -1.5 0.8 0 1.5 -0.4 1.5 -1 0 -0.5 0.7 -1 1.5 -1 0.8 0 1.5 -0.4 1.5 -1 0 -0.5 0.7 -1 1.5 -1 0.8 0 1.5 -0.3 1.5 -0.8 0 -0.4 -2 -0.6 -4.5 -0.4 -4.4 0.4 -4.5 0.3 -4.5 -2.4 0 -6.4 0.9 -7.4 5.9 -7.4 l4.6 0 -0.3 -6.5 -0.4 -6.5 3.6 0 c4 0 5.6 2 5.6 6.9 0 2.1 0.5 3.1 1.5 3.1 0.8 0 1.5 0.5 1.5 1 0 0.6 1.1 1 2.5 1 1.4 0 2.5 0.4 2.5 0.8 0 0.5 4.5 1.4 10 2.1 14.2 1.9 35 0.1 35 -3 0 -0.5 1.1 -0.9 2.5 -0.9 3.3 0 11.8 -4.2 18 -8.8 l5 -3.7 -3.2 -0.3 c-3 -0.3 -3.3 -0.6 -3.3 -3.8 0 -3.2 0.2 -3.4 3.5 -3.4 3.2 0 3.5 0.2 3.5 3 0 1.7 0.4 3 0.9 3 0.5 0 2.6 -1.9 4.7 -4.2 l3.9 -4.3 -3.3 -0.3 c-2.9 -0.3 -3.2 -0.6 -3.2 -3.8 0 -3.2 0.2 -3.4 3.5 -3.4 3.1 0 3.5 0.3 3.5 2.5 0 3.8 1.5 3 5.4 -3 4.3 -6.3 6.6 -11.5 6.6 -14.5 0 -1.2 0.6 -2.7 1.3 -3.5 4.7 -4.6 4.3 -47.5 -0.4 -47.5 -0.5 0 -0.9 -1.1 -0.9 -2.5 0 -2.1 -0.5 -2.5 -3.1 -2.5 -3 0 -3.1 -0.1 -2.9 -4.2 0.4 -6.1 0.2 -6.8 -1.5 -6.8 -0.9 0 -1.8 -1.2 -2.1 -3 -0.4 -1.6 -1 -3 -1.5 -3 -0.5 0 -0.9 -0.6 -0.9 -1.4 0 -0.7 -0.9 -1.6 -2 -1.9 -1.1 -0.3 -2 -1.4 -2 -2.5 0 -1.4 -0.9 -2.1 -3 -2.5 -1.9 -0.4 -3 -1.3 -3 -2.3 0 -2.4 -2.9 -5.4 -5.2 -5.4 -1 0 -1.8 -0.4 -1.8 -1 0 -0.5 -0.6 -1 -1.3 -1 -0.7 0 -1.8 -0.9 -2.5 -2 -0.7 -1.1 -2.3 -2 -3.6 -2 -1.3 0 -2.6 -0.7 -3 -1.5 -0.3 -0.9 -1.8 -1.5 -3.6 -1.5 -1.6 0 -3 -0.4 -3 -1 0 -0.5 -0.9 -1 -2.1 -1 -1.1 0 -2.7 -0.7 -3.5 -1.5 -1 -1 -3.5 -1.5 -7.5 -1.5 -3.2 0 -5.9 -0.4 -5.9 -0.8 0 -0.9 -15.1 0.3 -22.9 1.9 -3.1 0.6 -6.6 1.3 -7.8 1.5 -1.5 0.3 -2.3 1.2 -2.3 2.4 0 1.8 -0.7 2 -6.7 2 -11.3 0 -19.5 6 -26.3 19.3 -1.7 3.2 -3 6.7 -3 7.8 0 1.2 -0.7 1.9 -2 1.9 -1.3 0 -2 0.7 -2 2 0 1.1 -0.4 2 -1 2 -0.5 0 -1 0.7 -1 1.5 0 0.8 -0.4 1.5 -0.9 1.5 -1.1 0 -4.1 7.3 -4.1 10.1 0 1.1 -0.7 2.7 -1.5 3.5 -1 1.1 -1.5 3.6 -1.5 8 0 3.6 -0.4 6.4 -1 6.4 -0.5 0 -1 2.3 -1 5 0 2.8 0.5 5 1 5 0.6 0 1 2.5 1 5.5 0 4.8 0.3 5.5 1.9 5.5 1.6 0 2.1 1 2.6 5.3 0.4 2.8 0.6 5.7 0.5 6.2 -0.5 2.5 0.1 4.5 1.5 4.5 0.9 0 1.5 0.9 1.5 2.5 0 1.3 0.6 2.8 1.3 3.2 0.6 0.4 1.7 1.7 2.3 2.8 0.6 1.1 2 2.4 3.2 3 1.6 0.7 2.2 1.9 2.2 4.2 0 2.7 -0.7 3.7 -4 5.8 -4.8 3.1 -12.9 4.9 -17.5 4.1 -4.4 -0.9 -6.8 -4.1 -9.4 -12.4 -1.1 -3.7 -2.7 -7.6 -3.5 -8.7 -1.3 -1.8 -1.5 -1.7 -2.1 2.8 -0.8 5.1 0.7 14.4 3.3 20.7 2 4.9 9.4 15.1 13.6 18.8 5 4.4 11.6 8 19.4 10.8 7.8 2.8 11.2 3 11.2 0.9z m-28 -38.2 c-0.8 -0.3 -2.7 -1.2 -4.2 -2 -3.2 -1.5 -3.5 -1.2 -1.2 1.1 0.8 0.9 2.7 1.6 4.2 1.5 1.6 0 2.1 -0.3 1.2 -0.6z"/>
  <path d="M104.4 180.5 c2.1 -1.6 1.3 -3.5 -1.5 -3.5 -2.7 0 -2.5 -3.6 0.4 -4.4 1.2 -0.3 4.1 -0.6 6.5 -0.6 4.2 0 4.2 0 4.2 3.6 0 2.7 -0.5 3.7 -2 4.1 -1.1 0.3 -2 0.9 -2 1.4 0 0.5 -1.7 0.9 -3.7 0.9 -3.5 -0.1 -3.6 -0.2 -1.9 -1.5z"/>
  <path d="M192 107.5 c0 -3.3 0.2 -3.5 3.5 -3.5 3.3 0 3.5 0.2 3.5 3.5 0 3.3 -0.2 3.5 -3.5 3.5 -3.3 0 -3.5 -0.2 -3.5 -3.5z"/>
  <path d="M125.8 220.3 c1.2 -0.2 3 -0.2 4 0 0.9 0.3 -0.1 0.5 -2.3 0.4 -2.2 0 -3 -0.2 -1.7 -0.4z"/>
  <path d="M233 162.5 c0 -4.2 -0.3 -5.5 -1.5 -5.5 -2 0 -1.9 -3.6 0.1 -4.4 0.9 -0.3 3.1 -0.6 5 -0.6 3.3 0 3.4 0.1 3.4 4.3 0 2.3 0.3 5.2 0.6 6.4 0.5 1.7 -0.1 2.5 -2.5 3.7 -4.6 2.4 -5.1 2.1 -5.1 -3.9z"/>
  <path d="M220.3 127 c0 -3.6 0.2 -5 0.4 -3.2 0.2 1.7 0.2 4.7 0 6.5 -0.2 1.7 -0.4 0.3 -0.4 -3.3z"/>
  <path d="M231.3 124.8 c-2.6 -1.3 -3 -4.3 -0.8 -5.2 0.8 -0.3 1.5 0 1.5 0.6 0 0.6 0.3 0.8 0.7 0.5 0.3 -0.4 0.5 -3.6 0.4 -7.2 -0.2 -6.8 0.1 -7.2 4.3 -5.5 2.5 0.9 2.6 1.2 2.6 9.5 l0 8.5 -3.2 -0.1 c-1.8 0 -4.3 -0.5 -5.5 -1.1z"/>
  <path d="M23 124.3 c-6 -1.9 -6.2 -2.3 -5.5 -9.3 0.7 -6.6 1.5 -8 4.8 -8 1.4 0 1.7 0.9 1.7 6 0 4.8 0.4 6.1 1.9 7 1.3 0.6 1.7 1.7 1.4 3 -0.5 2 -1.5 2.3 -4.3 1.3z"/>
 </g>
 <g fill="#9b704a">
  <path d="M70.6 221.4 c-7.9 -1.9 -19.1 -7.4 -24.4 -11.9 -4.6 -4 -12.4 -14.4 -14.3 -19.1 -2.2 -5.6 -3.8 -13.9 -3.9 -19.7 0 -7.1 1.8 -14.7 3.5 -14.7 2.4 0 6.4 6 8.5 12.8 2.5 7.9 4.3 11 7.3 12.1 2.9 1.1 9 -0.4 14 -3.6 3.8 -2.4 3.9 -2.7 2.1 -3.4 -3.3 -1.2 -8.2 -7.7 -7.7 -10.2 0.4 -1.6 0.2 -1.8 -0.5 -0.8 -0.7 1 -1.2 0.5 -2.1 -2 -0.6 -1.9 -1.1 -3.8 -1 -4.3 0 -0.5 -0.5 -1.2 -1.1 -1.6 -0.8 -0.5 -0.6 -1.2 0.7 -2.5 1.7 -1.8 1.7 -1.8 -0.3 -1.3 -1.7 0.4 -2 0.2 -1.7 -1.3 0.3 -1.1 0.9 -1.9 1.4 -1.9 0.5 0 0.9 -0.4 0.9 -1 0 -1.8 -3 -1.1 -3.1 0.8 -0.1 0.9 -0.5 -0.3 -1 -2.8 -0.5 -2.5 -0.6 -5.8 -0.3 -7.4 0.4 -1.9 0.3 -2.6 -0.5 -2.2 -0.8 0.5 -1.1 -2 -1.1 -8.4 0 -6.6 0.3 -8.9 1.1 -8.4 0.9 0.5 1 -0.1 0.5 -2.1 -0.9 -3.6 1.2 -13.8 2.6 -12.9 0.7 0.4 0.8 0.2 0.4 -0.5 -0.9 -1.4 3.2 -12.1 4.5 -12.1 0.5 0 0.8 -0.3 0.8 -0.7 -0.3 -2.1 0.2 -3.3 1.3 -2.7 0.6 0.4 0.8 0.3 0.5 -0.4 -1.2 -1.8 0.3 -4 2.4 -3.5 1.3 0.4 1.9 0 1.9 -1.1 0 -0.9 -0.4 -1.6 -1 -1.6 -0.5 0 -1 -0.4 -1 -1 0 -0.5 0.7 -1 1.5 -1 0.9 0 1.8 -0.7 2.1 -1.5 1.7 -4.3 2.2 0.3 2 16.8 -0.3 19.4 -1.5 26.7 -6.1 35.6 -4 8.1 -4.8 12.3 -3.1 18.6 1.7 6.7 6.3 14.1 11.7 18.9 3.3 3 3.9 4.2 3.9 7.5 0 3.8 0 3.8 -8 7.5 -7.9 3.6 -8 3.7 -6.5 5.9 2.6 3.7 9.4 8.5 15 10.6 5 1.9 5.6 1.9 9.4 0.4 4.3 -1.7 5.4 -3.3 4.3 -6 -0.5 -1.4 -0.8 -1.2 -1.2 1.2 -0.5 2.8 -0.9 3 -5.3 3.3 l-4.7 0.3 0 -3.4 c0 -2.7 0.5 -3.6 2.3 -4.1 4.2 -1.1 4.9 -0.8 3.6 1.5 -1.3 2.5 -1.1 2.4 7.6 -3.6 6.4 -4.5 9.5 -6 9.5 -4.6 0 0.5 2.6 1.5 5.8 2.4 29.2 7.9 55.8 3.8 71.4 -11 8.7 -8.4 10.1 -12.5 9.9 -30.1 -0.2 -16 0.9 -23.9 4.5 -32.5 3.7 -8.8 4.4 -14.1 2.8 -20.4 -0.8 -3 -1.4 -6.3 -1.4 -7.3 0 -1.1 -0.7 -2 -1.5 -2 -0.8 0 -1.5 -0.6 -1.5 -1.4 0 -0.8 -0.7 -1.6 -1.5 -2 -0.8 -0.3 -1.5 -1.2 -1.5 -2.1 0 -0.8 -0.5 -1.5 -1.1 -1.5 -0.6 0 -2.3 -0.8 -3.7 -1.8 -4.7 -3.3 -11.1 -4.3 -19.3 -3 -9.8 1.5 -19.8 1.5 -28.4 -0.1 -5 -1 -7 -1 -7.3 -0.2 -0.5 1.4 -7.2 1.5 -7.2 0.1 0 -0.5 -0.6 -1 -1.3 -1 -0.6 0 -3.5 -1.6 -6.2 -3.6 -8.6 -6.2 -14.2 -8.4 -21.7 -8.4 -3.8 0 -6.8 -0.2 -6.8 -0.5 0 -0.3 0.9 -1.4 2 -2.5 2.2 -2.2 4 -2.6 4 -1 0 0.6 0.9 1 2 1 1.3 0 1.8 -0.5 1.4 -1.5 -0.9 -2.2 4.2 -2 5.6 0.3 1 1.5 1.1 1.5 0.7 -0.4 -0.4 -1.8 0.3 -2.4 3.3 -3.4 2.1 -0.7 4.4 -0.9 5 -0.5 0.9 0.6 1.1 0.4 0.5 -0.5 -0.6 -1 -0.1 -1.2 1.9 -0.8 1.4 0.3 2.6 0.1 2.6 -0.4 0 -0.6 1.5 -0.7 3.6 -0.3 2.1 0.3 3.4 0.2 3 -0.3 -0.3 -0.5 4 -0.9 9.9 -0.9 6.9 0 10.2 0.3 9.8 1 -0.4 0.6 0.3 0.8 2 0.3 3 -0.7 13 1.2 12.2 2.4 -0.3 0.4 0.1 0.8 0.8 0.7 3.4 -0.1 4.8 0.4 4.1 1.5 -0.5 0.7 -0.3 0.8 0.5 0.4 1.6 -1 7.3 1.3 6.4 2.7 -0.3 0.6 -0.1 0.7 0.5 0.3 1.4 -0.9 7.3 2.4 6.6 3.6 -0.3 0.5 -0.2 0.8 0.3 0.7 2 -0.3 3.4 0.2 2.8 1.1 -0.3 0.5 0 0.8 0.7 0.5 2.1 -0.7 6.9 4.1 6.1 6.1 -0.4 1.2 -0.3 1.5 0.5 1 0.7 -0.4 1.2 -0.3 1.2 0.3 0 0.6 0.7 0.8 1.5 0.5 0.9 -0.4 1.7 0.1 2 1 1.4 4.5 1.7 5.1 2.2 3.8 0.7 -1.8 2.3 -0.4 2.3 1.9 0 1.1 0.5 1.7 1 1.4 0.6 -0.3 1 0.3 1 1.4 0 3.6 1.1 5.3 2.6 4 1.3 -1.1 1.9 -0.2 1.5 2.4 0 0.4 0.4 0.7 1 0.7 0.5 0 0.7 0.5 0.4 1 -0.3 0.6 -0.2 1 0.4 1 1.4 0 5.3 9.1 4.6 10.7 -0.2 0.8 -0.1 1.2 0.4 0.9 1.2 -0.8 3.6 7.4 3.5 12.2 -0.1 2.4 0.2 3.9 0.5 3.4 0.3 -0.6 0.6 4.8 0.6 11.8 0 7 -0.4 12.3 -0.8 11.7 -0.4 -0.7 -0.5 0.5 -0.1 2.6 0.4 2.5 0.3 3.7 -0.5 3.7 -0.7 0 -0.9 0.5 -0.5 1.1 0.8 1.4 -1.6 9 -2.7 8.3 -0.5 -0.3 -0.6 0.2 -0.3 1 1.2 3.2 -10.5 23.4 -12.8 21.9 -0.7 -0.3 -0.8 -0.1 -0.4 0.6 0.9 1.4 -9 11.3 -16 16.2 -6.6 4.5 -16.4 9.1 -18.1 8.5 -0.8 -0.3 -1.2 -0.2 -0.9 0.3 0.9 1.3 -10.9 4.3 -14 3.5 -1.5 -0.4 -2.5 -0.3 -2.1 0.2 0.3 0.6 -4.2 0.9 -10.8 0.9 -6.2 0 -11.1 -0.3 -10.8 -0.8 0.3 -0.5 -1.1 -0.5 -3.1 -0.2 -2.5 0.5 -3.6 0.4 -3.6 -0.4 0 -0.7 -0.5 -0.9 -1 -0.6 -1.4 0.9 -7.2 -0.4 -6.5 -1.5 0.3 -0.4 -0.1 -0.8 -0.8 -0.7 -3.2 0.1 -4.8 -0.4 -4.2 -1.3 0.3 -0.6 -0.1 -0.7 -0.9 -0.4 -1.3 0.5 -1.6 -0.2 -1.6 -3.3 0 -2.2 -0.7 -4.8 -1.5 -5.9 -1.3 -1.8 -1.4 -1.6 -1.5 2.2 0 5.2 -3.1 9.4 -6.7 9.4 -1.5 0 -2.3 0.3 -2 0.7 0.4 0.3 0.2 1.2 -0.5 2 -1 1.2 -0.7 1.3 1.8 0.7 1.6 -0.4 3.6 -1 4.5 -1.5 0.8 -0.4 1.9 -0.5 2.5 -0.1 1.1 0.9 1.3 6.2 0.1 6.2 -0.4 0 -0.6 0.3 -0.4 0.8 0.3 0.4 -1.7 2 -4.4 3.7 -6.2 3.7 -6.6 6 -0.9 5.2 2.2 -0.3 4 -0.2 4 0.2 0 1.4 -13.3 1 -19.4 -0.5z"/>
  <path d="M85.8 181.9 c0.3 -2.5 0.9 -3.9 1.8 -3.9 0.8 0 1.4 -0.4 1.4 -0.9 0 -0.9 7.5 -3.9 19.5 -7.7 l6 -1.9 -0.4 -4.9 -0.3 -4.9 5.2 0.6 c7.5 0.9 8.3 1.9 7.7 9.5 -0.6 7.6 -2 9.4 -9.4 12.2 -4.8 1.8 -13.3 2.8 -13.3 1.5 0 -0.9 3.6 -4.1 5.6 -4.9 1.2 -0.6 1.5 -1 0.7 -1.3 -1.9 -0.7 -13.4 3.4 -18.4 6.5 -2.4 1.6 -4.9 3.1 -5.4 3.4 -0.7 0.4 -0.9 -0.8 -0.7 -3.3z"/>
  <path d="M14.9 164.8 c-3.5 -2 -3.7 -2.4 -4.3 -8.9 -0.4 -3.8 -0.4 -7.3 -0.1 -7.9 0.3 -0.5 2.3 -1 4.4 -1 3.1 0 4.2 0.6 5.6 2.6 1.9 2.9 1.4 5.4 -1.1 5.4 -1.4 0 -1.6 0.7 -1.1 4.3 0.2 2.3 0.8 5 1.2 6 0.9 2.2 -0.2 2.1 -4.6 -0.5z"/>
  <path d="M237.7 165.3 c-0.4 -0.3 -0.7 -2.9 -0.7 -5.6 0 -4 -0.3 -4.8 -1.5 -4.3 -2.2 0.8 -1.9 -2.2 0.7 -7.1 2 -3.7 2.7 -4.3 5.5 -4.3 l3.3 0 0 6.8 c0 3.7 0.3 7.7 0.6 8.8 0.4 1.7 -0.2 2.6 -2.9 4.3 -3.8 2.3 -4.1 2.4 -5 1.4z"/>
  <path d="M208.3 127 c0 -2.5 0.2 -3.5 0.4 -2.2 0.2 1.2 0.2 3.2 0 4.5 -0.2 1.2 -0.4 0.2 -0.4 -2.3z"/>
  <path d="M235.8 127.9 c-2.3 -2.4 -2.4 -6.4 -0.3 -5.5 1.3 0.4 1.5 -0.7 1.5 -6.9 0 -4.1 0.4 -7.5 0.9 -7.5 0.4 0 2.3 1 4.1 2.3 l3.3 2.2 -0.2 8 c-0.1 4.3 -0.5 8.3 -0.7 8.7 -1 1.5 -6.9 0.6 -8.6 -1.3z"/>
  <path d="M11.8 127.3 c-1.5 -0.4 -1.7 -1.4 -1.4 -7.4 0.4 -7.8 1.1 -9 6.9 -11.4 l3.9 -1.6 -0.4 6 c-0.2 4.9 0 6.1 1.5 7.1 1 0.6 2.2 0.8 2.7 0.5 0.6 -0.4 1 0.3 1 1.4 0 3.9 -8.1 7 -14.2 5.4z"/>
 </g>
 <g fill="#a87b50">
  <path d="M74.1 203.4 c-9.5 -2.5 -16.3 -7.1 -21.2 -14.6 -3.3 -4.9 -3.5 -5.8 -1.4 -5.8 2.7 0 17.5 -7.2 17.5 -8.5 0 -0.7 -0.8 -1.6 -1.7 -1.9 -1.4 -0.6 -1.1 -1 1.6 -2.7 1.8 -1.1 6.2 -3.1 9.7 -4.5 3.5 -1.5 6.4 -2.9 6.4 -3.3 0 -0.4 2.7 -1.3 6 -2 3.3 -0.8 6.3 -1.8 6.6 -2.2 0.6 -1 22.4 -1.2 24.8 -0.3 1 0.4 1.6 1.8 1.6 3.6 0 2.3 -0.3 2.8 -1.2 2.1 -0.7 -0.6 -2.3 -1.2 -3.4 -1.5 -2 -0.5 -2 -0.3 -1 2.4 1.5 4.1 0 6 -7 8.2 -12.3 4 -19.4 6.8 -19.4 7.7 0 0.5 -0.7 0.9 -1.5 0.9 -0.8 0 -1.5 0.5 -1.5 1.1 0 0.6 -1.5 2.5 -3.2 4.3 -8 8 -9.3 11.9 -1.8 5.6 1.9 -1.7 3.7 -3 4.1 -3 1.6 0 2.7 5 1.9 8.2 -0.8 2.8 -1.9 3.8 -5.8 5.4 -4.4 1.9 -5.3 2 -10.1 0.8z"/>
  <path d="M121.8 193.2 c-3.4 -0.7 -2 -3.2 1.7 -3.2 2.7 0 3.5 0.4 3.5 1.8 0 1.7 -1.5 2.1 -5.2 1.4z"/>
  <path d="M122.1 172.3 c1.1 -1.3 1.1 -1.7 0.2 -2 -1.8 -0.6 -1.6 -2.3 0.2 -2.3 0.8 0 1.5 -0.7 1.5 -1.5 0 -0.8 0.7 -1.5 1.5 -1.5 1.1 0 1.5 1.2 1.5 4.5 0 4.4 -0.1 4.5 -3.1 4.5 -2.8 0 -3 -0.2 -1.8 -1.7z"/>
  <path d="M10.5 161.4 c-5.4 -5.4 -7.6 -11.3 -8.2 -22 -0.7 -11.8 1.3 -18.6 7.3 -25.2 l4.2 -4.7 -0.1 7.3 c-0.2 7.4 0 7.8 4.1 7.3 1.7 -0.3 1.5 4 -0.5 7.9 -1.4 2.9 -1.5 4.1 -0.4 8.4 2.7 11.1 2.5 15 -0.4 10.9 -2.2 -2.9 -3.1 -0.6 -2.4 6.4 0.3 3.7 0.5 6.9 0.3 7.1 -0.1 0.2 -1.9 -1.3 -3.9 -3.4z"/>
  <path d="M242.7 162.3 c-0.4 -0.3 -0.7 -4 -0.7 -8.2 -0.1 -7.2 -0.2 -7.5 -1.5 -5.1 -1.4 2.3 -1.5 1.9 -1.4 -6.5 0 -4.9 -0.2 -11.2 -0.6 -14 -0.5 -4.4 -0.4 -4.8 0.8 -3.3 2.1 2.7 2.7 1.2 2.7 -6.9 0 -4 0.4 -7.3 0.9 -7.3 2.1 0 8 8.4 9.6 13.6 1.4 4.4 1.6 7.7 1.2 14.8 -0.5 9.6 -2.1 14.7 -6.4 20.3 -2.6 3.3 -3.4 3.8 -4.6 2.6z"/>
  <path d="M184.5 145.6 c-0.4 -3.5 -0.4 -8.8 -0.1 -11.8 1.5 -12.3 1.7 -12.8 3.7 -12.8 1.9 0 2 0.4 1.2 4.8 -0.4 2.6 -0.8 9.5 -0.8 15.5 0 9.3 -0.2 10.7 -1.7 10.7 -1.3 0 -1.8 -1.4 -2.3 -6.4z"/>
  <path d="M123.5 75.1 c-5.5 -2.4 -9.5 -6.3 -9.5 -9.1 0 -1.8 0.3 -2 1.4 -1.1 1.1 0.9 1.5 0.9 1.9 -0.1 0.4 -0.8 0.6 -0.7 0.6 0.4 0.1 1.1 0.6 1.5 1.6 1.2 1 -0.4 1.5 0 1.5 1.2 0 1.5 0.2 1.6 0.9 0.5 0.7 -1 2.7 -1.2 8.7 -0.8 4.4 0.3 9.1 1 10.6 1.6 3 1.1 9 0.8 13.1 -0.8 3.6 -1.4 7.9 -0.4 7.5 1.7 -0.2 1 -3.4 2.6 -8.8 4.4 -10.6 3.4 -23.2 3.8 -29.5 0.9z"/>
 </g>
 <g fill="#d19f69">
  <path d="M125.5 193.1 c-0.3 -0.2 -0.5 -1.3 -0.5 -2.3 0 -1.6 0.9 -1.8 8 -1.8 7.2 0 8 0.2 8 1.9 0 1.3 -0.9 2.1 -2.9 2.6 -3.1 0.7 -11.8 0.4 -12.6 -0.4z"/>
  <path d="M115.8 192.3 c-1 -0.2 -1.8 -1.3 -1.8 -2.4 0 -1.5 0.7 -1.9 3.5 -1.9 3.1 0 3.5 0.3 3.5 2.5 0 2.5 -1.1 2.9 -5.2 1.8z"/>
  <path d="M142 190.5 c0 -2.3 0.4 -2.5 4.5 -2.5 3.7 0 4.5 0.3 4.5 1.9 0 1.9 -2.5 3.1 -6.7 3.1 -1.8 0 -2.3 -0.6 -2.3 -2.5z"/>
  <path d="M103.8 190.3 c-1 -0.2 -1.8 -1.3 -1.8 -2.4 0 -1.5 0.7 -1.9 3.5 -1.9 3.1 0 3.5 0.3 3.5 2.5 0 2.5 -1.1 2.9 -5.2 1.8z"/>
  <path d="M157 187 c0 -2.9 0.2 -3 4.5 -3 5.7 0 6.1 2.3 0.9 4.5 -5 2.1 -5.4 1.9 -5.4 -1.5z"/>
  <path d="M96.2 188.3 c-3.6 -0.7 -2.4 -3.7 1.6 -4.1 2.9 -0.3 3.2 -0.1 3.2 2.2 0 2.6 -0.4 2.7 -4.8 1.9z"/>
  <path d="M65.5 170.9 c-1.9 -1.7 -3.5 -3.6 -3.5 -4.3 0 -1.1 11 -5.6 17.3 -7.2 1.7 -0.4 2.7 -1.3 2.7 -2.5 0 -1 0.7 -1.9 1.5 -1.9 0.8 0 1.5 0.6 1.5 1.4 0 0.7 0.6 1.9 1.4 2.5 1.1 1 2.4 0.7 5.8 -1.1 3.7 -2 5.7 -2.3 15.3 -2.3 14.8 0 16.5 0.5 16.5 5.1 l0 3.5 -2.7 -2.1 c-2.3 -1.8 -3.9 -2.1 -11.5 -1.9 -4.9 0.1 -9 0.5 -9.3 0.9 -0.3 0.4 -3.2 1.3 -6.5 2.1 -3.3 0.7 -6 1.6 -6 2 0 0.4 -3 1.9 -6.7 3.4 -3.6 1.4 -7.6 3.3 -8.7 4.1 -2.8 1.9 -3 1.8 -7.1 -1.7z"/>
  <path d="M130.3 132.5 c0.6 -1.9 1.6 -3.5 2.4 -3.5 0.8 0 1.3 1.3 1.3 3.5 0 3 -0.3 3.5 -2.4 3.5 -2.3 0 -2.4 -0.2 -1.3 -3.5z"/>
  <path d="M106 126.6 c0 -4.7 3.6 -8.6 7.9 -8.6 2.6 0 3.1 0.4 3.1 2.5 0 1.6 0.6 2.5 1.5 2.5 1 0 1.5 1.1 1.5 3.5 0 2.8 -0.4 3.5 -1.9 3.5 -1.5 0 -2.1 -0.8 -2.3 -3.2 -0.4 -4.5 -3.7 -4.5 -5.8 -0.1 -2 4.3 -4 4.2 -4 -0.1z"/>
  <path d="M131 88.8 l0 -2.8 7.5 0 c5.9 0 7.7 0.3 8.2 1.5 0.9 2.4 -0.1 2.8 -8.2 3.4 l-7.5 0.7 0 -2.8z"/>
  <path d="M95.7 65.3 c-3.3 -0.9 -1.5 -3.8 2.6 -4.1 3.4 -0.3 3.7 -0.1 3.7 2.2 0 2.7 -1.6 3.1 -6.3 1.9z"/>
 </g>
 <g fill="#e6b175">
  <path d="M122.3 193.2 c-2.4 -0.2 -4.3 -0.6 -4.3 -1 0 -0.4 -2.6 -0.8 -5.6 -0.9 -3.1 -0.1 -6 -0.5 -6.3 -1 -0.3 -0.4 -2.2 -0.9 -4.1 -1 -1.9 -0.1 -3.6 -0.6 -3.8 -1.2 -0.2 -0.5 -0.9 -0.8 -1.7 -0.5 -0.8 0.3 -2.2 0.1 -3.1 -0.4 -1.5 -0.8 -1 -1.4 3.2 -3.5 2.8 -1.4 8.7 -3.8 13.2 -5.2 9.9 -3.2 14.2 -6.4 14.2 -10.7 0 -3 -3.2 -8.3 -4.4 -7.1 -0.3 0.3 -0.6 0.1 -0.6 -0.6 0 -0.7 -0.9 -0.9 -2.5 -0.5 -1.5 0.4 -2.5 0.2 -2.5 -0.5 0 -2.9 -24.8 0.6 -38 5.4 -4.1 1.5 -8.3 2.9 -9.2 3.2 -1 0.3 -1.8 1 -1.8 1.5 0 1.9 -3.3 -1.6 -7 -7.4 -4.3 -6.6 -6.6 -15.6 -5.6 -22.5 0.3 -2.6 2 -7.6 3.6 -11.1 5.1 -10.9 6.3 -17.2 6.4 -33.7 0.1 -14.2 0.2 -15.3 2.8 -20.5 3.8 -7.7 8.1 -12.6 14.2 -16 4.3 -2.5 6.2 -3 12.1 -3 8.5 0 12.8 1.8 24.2 10.1 4.5 3.3 9.8 6.6 11.7 7.4 5.6 2.4 12.5 1.8 24.6 -2 12 -3.8 16 -4.2 24 -2.3 10.2 2.3 19 13.8 20.5 26.6 0.6 6.1 -0.8 12.7 -6 27.2 -2.4 6.6 -2.7 8.8 -2.5 18 0.5 20.4 0.3 22.4 -1.7 27.2 -4.1 9.1 -18.7 21.5 -23.9 20.2 -1.7 -0.4 -2.4 -0.2 -2.4 0.9 0 1.9 -8.2 4 -12.1 3.2 -1.9 -0.4 -2.9 -0.3 -2.9 0.5 0 0.8 -2.2 0.9 -8 0.4 -4.4 -0.3 -8.6 -0.3 -9.2 0.2 -0.7 0.5 -3.2 0.8 -5.5 0.6z m-31.8 -34.1 c0.9 -1.6 11 -5 18.1 -6.1 8.7 -1.4 19.4 0.1 28.5 3.9 6.1 2.6 7.1 2.7 8.4 1.4 1.9 -1.9 0.7 -4.2 -4.2 -8.1 -12.4 -9.7 -28.1 -11.7 -41.8 -5.3 -9.9 4.6 -16.6 11.6 -13.8 14.4 1 1 4.1 0.8 4.8 -0.2z m39.5 -25 c1.5 -2.8 1.2 -6.7 -0.5 -8.1 -1.3 -1 -1.9 -1 -3.5 0.5 -1.9 1.8 -2.8 7.4 -1.3 8.8 1.3 1.4 4.3 0.7 5.3 -1.2z m-16.2 -1 c2.3 -1.4 3.1 -6.4 1.4 -9.3 l-1.6 -2.7 -2.3 2.5 c-2.5 2.7 -2.9 5.4 -1.3 8.5 1.2 2.1 1.8 2.3 3.8 1z m43.1 -1.6 c10.4 -8.8 3.2 -29.4 -9.6 -27 -9.3 1.7 -13.7 13.8 -8.7 23.7 3.1 6 12.9 7.8 18.3 3.3z m-54.8 -15.1 c9.2 -8.9 3.7 -26.4 -8.3 -26.4 -10.2 0 -15.9 11.9 -10.8 22.6 3.8 7.7 13.1 9.6 19.1 3.8z m52.6 -18.6 c6.7 -2.4 13.7 -8.7 12.7 -11.2 -1.4 -3.6 -3.9 -3.7 -10.5 -0.3 -4.8 2.5 -7.4 3.2 -11.6 3.1 -2.9 0 -5.3 0.4 -5.3 0.8 0 0.4 -1.1 0.8 -2.5 0.8 -1.4 0 -2.5 -0.4 -2.5 -1 0 -0.5 -1.1 0 -2.5 1.2 -3.1 2.7 -3.2 5.2 -0.3 7.2 3.4 2.4 15.4 2.1 22.5 -0.6z m-35.9 -16.2 c0.2 -1 -0.2 -2.9 -0.9 -4.2 -1.5 -2.9 -10 -8.7 -15.1 -10.5 -2.1 -0.7 -3.8 -1.6 -3.8 -1.9 0 -0.8 -13.3 0.4 -14.7 1.3 -1.6 1 -1.7 4.9 -0.1 6.5 0.7 0.7 2.6 1.2 4.4 1.2 5.1 0 15.7 3.7 20 6.9 4.5 3.5 9.7 3.8 10.2 0.7z"/>
  <path d="M228.6 152.8 c0.4 -2.4 0.7 -10.7 0.6 -18.6 0 -14.2 0 -14.3 2.1 -13.6 8.5 2.5 12.3 8.7 11.5 18.7 -0.9 10.5 -6.1 17.7 -12.8 17.7 -2 0 -2.1 -0.3 -1.4 -4.2z"/>
  <path d="M17.5 152.6 c-4.5 -6.9 -5.8 -18 -2.9 -24.2 1.6 -3.3 5.7 -6.5 10 -7.8 2 -0.6 2 -0.3 2 15.8 0 16.2 0 16.5 -2.2 17 -1.2 0.3 -2.9 0.9 -3.7 1.2 -1 0.3 -2.2 -0.4 -3.2 -2z"/>
 </g>
</svg>