<?xml version="1.0" encoding="UTF-8" standalone="no"?>
<!DOCTYPE svg PUBLIC "-//W3C//DTD SVG 1.1//EN" "http://www.w3.org/Graphics/SVG/1.1/DTD/svg11.dtd">
<svg width="100%" height="100%" viewBox="0 0 1096 222" version="1.1" xmlns="http://www.w3.org/2000/svg" xmlns:xlink="http://www.w3.org/1999/xlink" xml:space="preserve" xmlns:serif="http://www.serif.com/" style="fill-rule:evenodd;clip-rule:evenodd;stroke-linejoin:round;stroke-miterlimit:2;">
    <g transform="matrix(1,0,0,1,-243.02,-382.607)">
        <g transform="matrix(1,0,0,1,223,560)">
            <text x="0px" y="0px" style="font-family:'YuGothic-Regular', 'Yu Gothic', sans-serif;font-size:200px;fill:rgb(217,161,113);">monke</text>
        </g>
        <g transform="matrix(1,0,0,1,1012.06,560)">
            <text x="0px" y="0px" style="font-family:'YuGothic-Regular', 'Yu Gothic', sans-serif;font-size:200px;fill:rgb(242,226,5);">bot</text>
        </g>
    </g>
    <g transform="matrix(0.225556,-0.245406,0.245406,0.225556,475.089,65.3603)">
        <g id="Bananas.svg">
            <g>
                <g>
                    <g id="Layer-1" serif:id="Layer 1">
                        <g id="g9893">
                            <g id="path17976" transform="matrix(1,0,0,1,-17.8571,318.648)">
                                <path d="M543,119C543,119 547,177 531,189C515,201 397,320 397,320L419,345L562,248L573,121L543,119Z" style="fill:rgb(255,199,1);"/>
                            </g>
                            <path id="path18863" d="M525.142,437.648C525.142,437.648 529.142,495.648 513.142,507.648C497.142,519.648 379.142,638.648 379.142,638.648L401.142,663.648L544.142,566.648L555.142,439.648L525.142,437.648Z" style="fill-opacity:0.7;"/>
                        </g>
                        <g id="g2783">
                            <path id="path6424" d="M519.911,399.654L483.387,454.453C483.387,454.453 454.126,461.721 439.294,470.941C424.463,480.162 377.858,514.191 274.748,506.891C171.638,499.59 156.322,477.557 133.976,476.751C111.63,475.945 77.838,479.827 69.647,486.065C61.456,492.303 71.25,511.094 71.25,511.094C71.25,511.094 101.217,578.495 210.306,606.149C319.394,633.803 448.545,576.707 448.545,576.707L538.742,411.074L519.911,399.654Z" style="fill:rgb(255,199,1);"/>
                            <path id="path1895" d="M517.005,404.01L483.38,454.447C483.38,454.447 454.118,461.727 439.286,470.947C424.455,480.168 377.865,514.185 274.755,506.885C171.645,499.584 156.32,477.566 133.974,476.76C111.628,475.953 77.852,479.834 69.661,486.072C69.29,486.355 68.962,486.678 68.661,487.01C87.946,484.212 116.375,484.781 136.38,488.416C174.771,495.393 209.978,518.656 299.505,516.228C426.737,512.74 441.665,473.103 459.38,468.416C484.008,461.9 530.484,452.346 517.005,404.01Z" style="fill:white;fill-opacity:0.4;"/>
                            <path id="path9086" d="M106.962,554.708C128.494,573.415 161.443,593.763 210.306,606.149C222.07,609.131 234.076,611.111 246.119,612.3L284.832,604.453C220.542,614.517 142.316,575.188 106.962,554.708Z" style="fill-opacity:0.4;"/>
                        </g>
                        <g id="g9941">
                            <g id="path12644" transform="matrix(1,0,0,1,-17.8571,318.648)">
                                <path d="M546,120C546,120 567,175 561,189C555,203 520,283 455,313C390,343 223,339 219,331C215,323 219,407 320,438C421,469 550.089,401.093 573,379C602,351 657,279 641,225C625,171 613,187 604,172C595,157 585,128 585,116C585,104 547,120 546,120Z" style="fill:rgb(255,199,1);"/>
                            </g>
                            <path id="path8981" d="M533.724,527.638C518.53,557.285 486.499,608.852 437.131,631.638C372.131,661.638 205.131,657.638 201.131,649.638C200.131,647.638 199.646,651.403 201.037,658.638L201.068,658.763L203.131,665.638C203.131,665.638 202.968,665.653 202.756,665.731C202.859,666.093 202.988,666.486 203.099,666.856C203.246,667.346 203.377,667.821 203.537,668.325C203.825,669.232 204.173,670.186 204.506,671.138C204.617,671.457 204.701,671.782 204.818,672.106C205.044,672.735 205.322,673.367 205.568,674.013C205.852,674.755 206.101,675.499 206.412,676.263C206.632,676.805 206.896,677.366 207.131,677.919C207.446,678.658 207.758,679.381 208.099,680.138C208.262,680.498 208.431,680.867 208.599,681.231C209.691,683.593 210.89,686.024 212.256,688.513C212.291,688.577 212.345,688.635 212.381,688.7C212.397,688.729 212.396,688.765 212.412,688.794C212.774,689.448 213.155,690.101 213.537,690.763C213.572,690.824 213.595,690.889 213.631,690.95C214.034,691.646 214.454,692.341 214.881,693.044C215.336,693.795 215.805,694.568 216.287,695.325C216.295,695.337 216.31,695.344 216.318,695.356C216.78,696.081 217.238,696.814 217.724,697.544C217.728,697.549 217.752,697.539 217.756,697.544C258.555,715.446 403.224,681.106 468.131,633.638C513.821,600.222 528.807,553.796 533.724,527.638Z" style="fill-opacity:0.6;"/>
                            <path id="path17089" d="M559.799,430.179C558.185,430.207 556.385,430.422 554.487,430.741C560.758,449.996 590.834,543.708 588.143,561.648C585.143,581.648 553.309,654.348 501.143,685.648C466.143,706.648 390.143,739.648 363.143,744.648C346.056,747.812 312.616,752.465 286.487,751.116C291.435,753.1 296.632,754.956 302.143,756.648C403.143,787.648 532.232,719.74 555.143,697.648C584.143,669.648 639.143,597.648 623.143,543.648C607.143,489.648 595.143,505.648 586.143,490.648C577.143,475.648 567.143,446.648 567.143,434.648C567.143,431.273 564.143,430.103 559.799,430.179Z" style="fill-opacity:0.4;"/>
                        </g>
                        <g id="g9903">
                            <path id="path1933" d="M533.143,448.648C533.143,448.648 514.143,467.648 519.143,485.648C524.143,503.648 541.143,547.648 478.143,597.648C415.143,647.648 232.143,734.648 109.143,639.648C74.143,599.648 94.143,573.648 94.143,573.648C94.143,573.648 114.13,570.758 122.143,571.648C132.143,568.648 179.143,571.648 223.143,573.648C282.053,572.49 443.143,497.648 474.143,468.648C474.143,468.648 512.143,422.648 513.143,414.648C514.143,406.648 540.143,430.648 541.143,437.648C542.143,444.648 533.143,447.648 533.143,448.648Z" style="fill:rgb(255,199,1);"/>
                            <path id="path7201" d="M514.6,413.045C513.792,413.14 513.257,413.638 513.132,414.638C512.132,422.638 474.132,468.638 474.132,468.638C443.132,497.638 282.042,572.481 223.132,573.638C179.132,571.638 132.132,568.638 122.132,571.638C114.119,570.748 94.132,573.638 94.132,573.638C94.132,573.638 93.766,574.166 93.225,575.076C104.184,578.283 124.126,582.75 156.382,583.607C230.772,585.584 262.007,581.545 326.507,556.42C394.137,530.075 484.824,496.22 520.382,415.357C517.971,413.817 515.901,412.891 514.6,413.045Z" style="fill:white;fill-opacity:0.4;"/>
                            <path id="path4646" d="M518.581,482.898C510.395,511.033 477.266,585.474 350.143,628.648C194.697,681.441 156.818,651.083 106.612,636.617C107.431,637.615 108.254,638.632 109.143,639.648C232.143,734.648 415.143,647.648 478.143,597.648C541.143,547.648 524.143,503.648 519.143,485.648C518.889,484.731 518.716,483.817 518.581,482.898Z" style="fill-opacity:0.4;"/>
                        </g>
                        <g id="g9946">
                            <path id="path23294" d="M534.474,391.425C528.724,389.925 508.716,405.729 509.068,411.02C509.42,416.304 528.535,433.436 540.643,437.574C544.643,438.574 566.643,436.574 567.643,432.574C568.643,428.574 568.643,411.574 564.643,407.574C560.643,403.574 541.164,393.171 534.474,391.425Z" style="fill:rgb(136,74,19);"/>
                            <path id="path22407" d="M534.474,391.425C528.724,389.925 508.716,405.729 509.069,411.02C509.42,416.304 528.535,433.436 540.643,437.574C544.643,438.574 566.643,436.574 567.643,432.574C568.643,428.574 568.643,411.574 564.643,407.574C560.643,403.574 541.164,393.17 534.474,391.425Z" style="fill:rgb(136,74,19);"/>
                            <path id="path25958" d="M533.237,391.335C526.302,391.855 508.75,406.063 509.08,411.023C509.222,413.148 512.419,417.18 516.955,421.523C517.242,413.185 521.379,401.088 540.674,393.773C538.178,392.666 536.001,391.824 534.487,391.429C534.127,391.335 533.699,391.301 533.237,391.335Z" style="fill:white;fill-opacity:0.3;"/>
                            <path id="path26854" d="M564.581,407.523C564.733,425.781 549.047,433.481 538.206,436.616C539.041,436.986 539.86,437.317 540.643,437.585C544.643,438.585 566.643,436.585 567.643,432.585C568.643,428.585 568.643,411.585 564.643,407.585C564.626,407.568 564.599,407.54 564.581,407.523Z" style="fill-opacity:0.4;"/>
                        </g>
                    </g>
                </g>
            </g>
        </g>
    </g>
</svg>
